<svg width="50" height="26" viewBox="0 0 50 26" fill="none" xmlns="http://www.w3.org/2000/svg">
<path d="M11.8554 22.2697C10.3809 22.2697 9.0233 22.036 7.78257 21.5684C6.55982 21.0829 5.48991 20.4086 4.57284 19.5455C3.65578 18.6644 2.9455 17.6305 2.44202 16.4437C1.93853 15.2569 1.68679 13.9622 1.68679 12.5596C1.68679 11.1571 1.93853 9.86238 2.44202 8.67559C2.9455 7.48881 3.65578 6.46385 4.57284 5.60073C5.50789 4.71963 6.59578 4.04532 7.83651 3.5778C9.07725 3.09229 10.4349 2.84954 11.9094 2.84954C13.5097 2.84954 14.9483 3.11027 16.225 3.63174C17.5196 4.15321 18.6075 4.91743 19.4886 5.9244L17.2769 8.0822C16.5396 7.34495 15.7395 6.8055 14.8763 6.46385C14.0312 6.10422 13.0961 5.9244 12.0712 5.9244C11.0822 5.9244 10.1651 6.08624 9.32 6.40991C8.47486 6.73358 7.74661 7.19211 7.13523 7.7855C6.52385 8.3789 6.04734 9.08018 5.70569 9.88936C5.38202 10.6985 5.22018 11.5886 5.22018 12.5596C5.22018 13.5127 5.38202 14.3938 5.70569 15.2029C6.04734 16.0121 6.52385 16.7224 7.13523 17.3338C7.74661 17.9272 8.46587 18.3857 9.29303 18.7094C10.1202 19.033 11.0372 19.1949 12.0442 19.1949C12.9793 19.1949 13.8783 19.051 14.7415 18.7633C15.6226 18.4576 16.4587 17.9541 17.2499 17.2528L19.2459 19.8692C18.2569 20.6604 17.1061 21.2628 15.7934 21.6763C14.4987 22.0719 13.1861 22.2697 11.8554 22.2697ZM15.9283 19.4106V12.3439H19.2459V19.8692L15.9283 19.4106ZM32.4038 22V3.11926H40.1719C41.8442 3.11926 43.2737 3.38899 44.4605 3.92844C45.6653 4.46789 46.5913 5.2411 47.2387 6.24807C47.886 7.25504 48.2097 8.45082 48.2097 9.83541C48.2097 11.22 47.886 12.4158 47.2387 13.4228C46.5913 14.4297 45.6653 15.2029 44.4605 15.7424C43.2737 16.2818 41.8442 16.5516 40.1719 16.5516H34.3458L35.9102 14.9062V22H32.4038ZM35.9102 15.2839L34.3458 13.5846H40.01C41.5565 13.5846 42.7163 13.2609 43.4895 12.6136C44.2807 11.9483 44.6763 11.0222 44.6763 9.83541C44.6763 8.63064 44.2807 7.70459 43.4895 7.05725C42.7163 6.40991 41.5565 6.08624 40.01 6.08624H34.3458L35.9102 4.36V15.2839Z" fill="#3B433F"/>
<rect x="22.9771" y="10.3398" width="5.3945" height="5.3945" rx="0.899083" fill="#40A578"/>
</svg>
